<?xml version="1.0" encoding="UTF-8" standalone="no"?>
<!DOCTYPE svg PUBLIC "-//W3C//DTD SVG 1.1//EN" "http://www.w3.org/Graphics/SVG/1.1/DTD/svg11.dtd">
<svg width="100%" height="100%" viewBox="0 0 522 522" version="1.1" xmlns="http://www.w3.org/2000/svg" xmlns:xlink="http://www.w3.org/1999/xlink" xml:space="preserve" xmlns:serif="http://www.serif.com/" style="fill-rule:evenodd;clip-rule:evenodd;stroke-linejoin:round;stroke-miterlimit:2;">
    <g id="Artboard1" transform="matrix(1.60959,0,0,1.00042,0,0)">
        <rect x="0" y="0" width="324.306" height="521.78" style="fill:none;"/>
        <clipPath id="_clip1">
            <rect x="0" y="0" width="324.306" height="521.78"/>
        </clipPath>
        <g clip-path="url(#_clip1)">
            <g transform="matrix(0.751534,0,0,1.20915,-21.3826,-63.4093)">
                <circle cx="244.215" cy="268.204" r="215.763" style="fill:rgb(251,200,79);"/>
            </g>
            <g transform="matrix(0.591775,0,0,0.917931,-163.532,-1361.82)">
                <path d="M477.11,1961.93L407.258,1961.93L407.258,1896.75L448.205,1896.75L448.205,1640.69L407.258,1640.69L407.258,1575.08L477.11,1575.08L477.11,1506.78L516.746,1506.78L516.746,1575.08L549.776,1575.08L549.776,1506.78L589.411,1506.78L589.411,1576.63C603.071,1577.85 614.48,1579.8 623.638,1582.47C646.332,1589.15 665.771,1601.03 681.955,1618.09C698.14,1635.16 710.454,1656.05 718.898,1680.77C727.342,1705.48 731.565,1735.96 731.565,1772.2C731.565,1804.04 727.606,1831.48 719.69,1854.53C710.014,1882.68 696.205,1905.46 678.261,1922.87C664.715,1936.07 646.42,1946.36 623.374,1953.75C613.832,1956.77 602.511,1958.95 589.411,1960.3L589.411,2028.56L549.776,2028.56L549.776,1961.93L516.746,1961.93L516.746,2028.56L477.11,2028.56L477.11,1961.93ZM516.366,1640.52L516.366,1896.75L543.683,1896.75C565.497,1896.75 581.242,1895.52 590.917,1893.06C603.584,1889.89 614.095,1884.52 622.451,1876.96C630.807,1869.39 637.624,1856.95 642.901,1839.62C648.179,1822.29 650.818,1798.67 650.818,1768.77C650.818,1738.86 648.179,1715.9 642.901,1699.9C637.624,1683.89 630.235,1671.4 620.736,1662.42C611.236,1653.45 599.186,1647.38 584.584,1644.22C573.677,1641.76 572.303,1640.52 540.462,1640.52L516.366,1640.52Z" style="fill:white;"/>
            </g>
        </g>
    </g>
</svg>
